<mxfile host="app.diagrams.net" modified="2023-05-14T11:32:25.794Z" agent="Mozilla/5.0 (X11; Linux x86_64; rv:109.0) Gecko/20100101 Firefox/113.0" etag="LajOjIkpakVKZ1MqRFU-" version="21.3.0" type="github">
  <diagram name="Страница 1" id="9DTQa789_X3QynEfPQ1M">
    <mxGraphModel dx="2261" dy="763" grid="1" gridSize="10" guides="1" tooltips="1" connect="1" arrows="1" fold="1" page="1" pageScale="1" pageWidth="827" pageHeight="1169" math="0" shadow="0">
      <root>
        <mxCell id="0" />
        <mxCell id="1" parent="0" />
        <mxCell id="oJoJYEPMuIziXtRQ-ZP9-3" style="edgeStyle=orthogonalEdgeStyle;rounded=0;orthogonalLoop=1;jettySize=auto;html=1;exitX=0.5;exitY=1;exitDx=0;exitDy=0;entryX=0.5;entryY=0;entryDx=0;entryDy=0;" edge="1" parent="1" source="oJoJYEPMuIziXtRQ-ZP9-1" target="oJoJYEPMuIziXtRQ-ZP9-2">
          <mxGeometry relative="1" as="geometry" />
        </mxCell>
        <mxCell id="oJoJYEPMuIziXtRQ-ZP9-1" value="App" style="rounded=0;whiteSpace=wrap;html=1;" vertex="1" parent="1">
          <mxGeometry x="330" y="20" width="120" height="60" as="geometry" />
        </mxCell>
        <mxCell id="oJoJYEPMuIziXtRQ-ZP9-5" style="edgeStyle=orthogonalEdgeStyle;rounded=0;orthogonalLoop=1;jettySize=auto;html=1;exitX=0.5;exitY=1;exitDx=0;exitDy=0;entryX=0.5;entryY=0;entryDx=0;entryDy=0;" edge="1" parent="1" source="oJoJYEPMuIziXtRQ-ZP9-2" target="oJoJYEPMuIziXtRQ-ZP9-4">
          <mxGeometry relative="1" as="geometry" />
        </mxCell>
        <mxCell id="oJoJYEPMuIziXtRQ-ZP9-7" style="edgeStyle=orthogonalEdgeStyle;rounded=0;orthogonalLoop=1;jettySize=auto;html=1;exitX=0.5;exitY=1;exitDx=0;exitDy=0;entryX=0.5;entryY=0;entryDx=0;entryDy=0;" edge="1" parent="1" source="oJoJYEPMuIziXtRQ-ZP9-2" target="oJoJYEPMuIziXtRQ-ZP9-6">
          <mxGeometry relative="1" as="geometry" />
        </mxCell>
        <mxCell id="oJoJYEPMuIziXtRQ-ZP9-12" style="edgeStyle=orthogonalEdgeStyle;rounded=0;orthogonalLoop=1;jettySize=auto;html=1;exitX=0.5;exitY=1;exitDx=0;exitDy=0;" edge="1" parent="1" source="oJoJYEPMuIziXtRQ-ZP9-2" target="oJoJYEPMuIziXtRQ-ZP9-11">
          <mxGeometry relative="1" as="geometry" />
        </mxCell>
        <mxCell id="oJoJYEPMuIziXtRQ-ZP9-2" value="BrowserRouter" style="rounded=0;whiteSpace=wrap;html=1;" vertex="1" parent="1">
          <mxGeometry x="330" y="110" width="120" height="60" as="geometry" />
        </mxCell>
        <mxCell id="oJoJYEPMuIziXtRQ-ZP9-4" value="Navbar" style="rounded=0;whiteSpace=wrap;html=1;" vertex="1" parent="1">
          <mxGeometry x="190" y="220" width="120" height="60" as="geometry" />
        </mxCell>
        <mxCell id="oJoJYEPMuIziXtRQ-ZP9-6" value="Header" style="rounded=0;whiteSpace=wrap;html=1;" vertex="1" parent="1">
          <mxGeometry x="50" y="220" width="120" height="60" as="geometry" />
        </mxCell>
        <mxCell id="oJoJYEPMuIziXtRQ-ZP9-30" style="edgeStyle=orthogonalEdgeStyle;rounded=0;orthogonalLoop=1;jettySize=auto;html=1;exitX=0.5;exitY=1;exitDx=0;exitDy=0;entryX=0.5;entryY=0;entryDx=0;entryDy=0;" edge="1" parent="1" source="oJoJYEPMuIziXtRQ-ZP9-10" target="oJoJYEPMuIziXtRQ-ZP9-42">
          <mxGeometry relative="1" as="geometry" />
        </mxCell>
        <mxCell id="oJoJYEPMuIziXtRQ-ZP9-10" value="&lt;div&gt;Route&lt;/div&gt;&lt;div&gt;to=&#39;/messages/*&#39;&lt;br&gt;&lt;/div&gt;" style="rounded=0;whiteSpace=wrap;html=1;" vertex="1" parent="1">
          <mxGeometry x="50" y="320" width="120" height="60" as="geometry" />
        </mxCell>
        <mxCell id="oJoJYEPMuIziXtRQ-ZP9-13" style="edgeStyle=orthogonalEdgeStyle;rounded=0;orthogonalLoop=1;jettySize=auto;html=1;exitX=0.5;exitY=1;exitDx=0;exitDy=0;entryX=0.5;entryY=0;entryDx=0;entryDy=0;" edge="1" parent="1" source="oJoJYEPMuIziXtRQ-ZP9-11" target="oJoJYEPMuIziXtRQ-ZP9-8">
          <mxGeometry relative="1" as="geometry" />
        </mxCell>
        <mxCell id="oJoJYEPMuIziXtRQ-ZP9-14" style="edgeStyle=orthogonalEdgeStyle;rounded=0;orthogonalLoop=1;jettySize=auto;html=1;exitX=0.5;exitY=1;exitDx=0;exitDy=0;entryX=0.5;entryY=0;entryDx=0;entryDy=0;" edge="1" parent="1" source="oJoJYEPMuIziXtRQ-ZP9-11" target="oJoJYEPMuIziXtRQ-ZP9-10">
          <mxGeometry relative="1" as="geometry" />
        </mxCell>
        <mxCell id="oJoJYEPMuIziXtRQ-ZP9-16" style="edgeStyle=orthogonalEdgeStyle;rounded=0;orthogonalLoop=1;jettySize=auto;html=1;exitX=0.5;exitY=1;exitDx=0;exitDy=0;entryX=0.5;entryY=0;entryDx=0;entryDy=0;" edge="1" parent="1" source="oJoJYEPMuIziXtRQ-ZP9-11" target="oJoJYEPMuIziXtRQ-ZP9-15">
          <mxGeometry relative="1" as="geometry" />
        </mxCell>
        <mxCell id="oJoJYEPMuIziXtRQ-ZP9-18" style="edgeStyle=orthogonalEdgeStyle;rounded=0;orthogonalLoop=1;jettySize=auto;html=1;exitX=0.5;exitY=1;exitDx=0;exitDy=0;entryX=0.5;entryY=0;entryDx=0;entryDy=0;" edge="1" parent="1" source="oJoJYEPMuIziXtRQ-ZP9-11" target="oJoJYEPMuIziXtRQ-ZP9-17">
          <mxGeometry relative="1" as="geometry" />
        </mxCell>
        <mxCell id="oJoJYEPMuIziXtRQ-ZP9-20" style="edgeStyle=orthogonalEdgeStyle;rounded=0;orthogonalLoop=1;jettySize=auto;html=1;exitX=0.5;exitY=1;exitDx=0;exitDy=0;entryX=0.5;entryY=0;entryDx=0;entryDy=0;" edge="1" parent="1" source="oJoJYEPMuIziXtRQ-ZP9-11" target="oJoJYEPMuIziXtRQ-ZP9-19">
          <mxGeometry relative="1" as="geometry" />
        </mxCell>
        <mxCell id="oJoJYEPMuIziXtRQ-ZP9-11" value="Routes" style="rounded=0;whiteSpace=wrap;html=1;" vertex="1" parent="1">
          <mxGeometry x="330" y="220" width="120" height="60" as="geometry" />
        </mxCell>
        <mxCell id="oJoJYEPMuIziXtRQ-ZP9-36" style="edgeStyle=orthogonalEdgeStyle;rounded=0;orthogonalLoop=1;jettySize=auto;html=1;exitX=0.5;exitY=1;exitDx=0;exitDy=0;entryX=0.5;entryY=0;entryDx=0;entryDy=0;" edge="1" parent="1" source="oJoJYEPMuIziXtRQ-ZP9-15" target="oJoJYEPMuIziXtRQ-ZP9-43">
          <mxGeometry relative="1" as="geometry" />
        </mxCell>
        <mxCell id="oJoJYEPMuIziXtRQ-ZP9-15" value="&lt;div&gt;Route&lt;/div&gt;&lt;div&gt;to=&#39;/news&#39;&lt;br&gt;&lt;/div&gt;" style="rounded=0;whiteSpace=wrap;html=1;" vertex="1" parent="1">
          <mxGeometry x="330" y="320" width="120" height="60" as="geometry" />
        </mxCell>
        <mxCell id="oJoJYEPMuIziXtRQ-ZP9-39" style="edgeStyle=orthogonalEdgeStyle;rounded=0;orthogonalLoop=1;jettySize=auto;html=1;exitX=0.5;exitY=1;exitDx=0;exitDy=0;entryX=0.5;entryY=0;entryDx=0;entryDy=0;" edge="1" parent="1" source="oJoJYEPMuIziXtRQ-ZP9-17" target="oJoJYEPMuIziXtRQ-ZP9-45">
          <mxGeometry relative="1" as="geometry" />
        </mxCell>
        <mxCell id="oJoJYEPMuIziXtRQ-ZP9-17" value="&lt;div&gt;Route&lt;/div&gt;&lt;div&gt;to=&#39;/music&#39;&lt;br&gt;&lt;/div&gt;" style="rounded=0;whiteSpace=wrap;html=1;" vertex="1" parent="1">
          <mxGeometry x="615" y="320" width="120" height="60" as="geometry" />
        </mxCell>
        <mxCell id="oJoJYEPMuIziXtRQ-ZP9-40" style="edgeStyle=orthogonalEdgeStyle;rounded=0;orthogonalLoop=1;jettySize=auto;html=1;exitX=0.5;exitY=1;exitDx=0;exitDy=0;entryX=0.5;entryY=0;entryDx=0;entryDy=0;" edge="1" parent="1" source="oJoJYEPMuIziXtRQ-ZP9-19" target="oJoJYEPMuIziXtRQ-ZP9-44">
          <mxGeometry relative="1" as="geometry" />
        </mxCell>
        <mxCell id="oJoJYEPMuIziXtRQ-ZP9-19" value="&lt;div&gt;Route&lt;/div&gt;&lt;div&gt;to=&#39;/settings&#39;&lt;br&gt;&lt;/div&gt;" style="rounded=0;whiteSpace=wrap;html=1;" vertex="1" parent="1">
          <mxGeometry x="895" y="320" width="120" height="60" as="geometry" />
        </mxCell>
        <mxCell id="oJoJYEPMuIziXtRQ-ZP9-41" value="Profile" style="swimlane;whiteSpace=wrap;html=1;" vertex="1" parent="1">
          <mxGeometry x="-315" y="400" width="270" height="290" as="geometry">
            <mxRectangle x="-250" y="400" width="140" height="30" as="alternateBounds" />
          </mxGeometry>
        </mxCell>
        <mxCell id="oJoJYEPMuIziXtRQ-ZP9-21" value="Profile" style="rounded=0;whiteSpace=wrap;html=1;" vertex="1" parent="oJoJYEPMuIziXtRQ-ZP9-41">
          <mxGeometry x="75" y="40" width="120" height="60" as="geometry" />
        </mxCell>
        <mxCell id="oJoJYEPMuIziXtRQ-ZP9-23" value="ProfireInfo" style="rounded=0;whiteSpace=wrap;html=1;" vertex="1" parent="oJoJYEPMuIziXtRQ-ZP9-41">
          <mxGeometry x="140" y="140" width="120" height="60" as="geometry" />
        </mxCell>
        <mxCell id="oJoJYEPMuIziXtRQ-ZP9-24" style="edgeStyle=orthogonalEdgeStyle;rounded=0;orthogonalLoop=1;jettySize=auto;html=1;exitX=0.5;exitY=1;exitDx=0;exitDy=0;entryX=0.5;entryY=0;entryDx=0;entryDy=0;" edge="1" parent="oJoJYEPMuIziXtRQ-ZP9-41" source="oJoJYEPMuIziXtRQ-ZP9-21" target="oJoJYEPMuIziXtRQ-ZP9-23">
          <mxGeometry relative="1" as="geometry" />
        </mxCell>
        <mxCell id="oJoJYEPMuIziXtRQ-ZP9-25" value="MyPosts" style="rounded=0;whiteSpace=wrap;html=1;" vertex="1" parent="oJoJYEPMuIziXtRQ-ZP9-41">
          <mxGeometry x="10" y="140" width="120" height="60" as="geometry" />
        </mxCell>
        <mxCell id="oJoJYEPMuIziXtRQ-ZP9-26" style="edgeStyle=orthogonalEdgeStyle;rounded=0;orthogonalLoop=1;jettySize=auto;html=1;exitX=0.5;exitY=1;exitDx=0;exitDy=0;entryX=0.5;entryY=0;entryDx=0;entryDy=0;" edge="1" parent="oJoJYEPMuIziXtRQ-ZP9-41" source="oJoJYEPMuIziXtRQ-ZP9-21" target="oJoJYEPMuIziXtRQ-ZP9-25">
          <mxGeometry relative="1" as="geometry" />
        </mxCell>
        <mxCell id="oJoJYEPMuIziXtRQ-ZP9-27" value="Post" style="rounded=0;whiteSpace=wrap;html=1;" vertex="1" parent="oJoJYEPMuIziXtRQ-ZP9-41">
          <mxGeometry x="10" y="220" width="120" height="60" as="geometry" />
        </mxCell>
        <mxCell id="oJoJYEPMuIziXtRQ-ZP9-28" style="edgeStyle=orthogonalEdgeStyle;rounded=0;orthogonalLoop=1;jettySize=auto;html=1;exitX=0.5;exitY=1;exitDx=0;exitDy=0;entryX=0.5;entryY=0;entryDx=0;entryDy=0;" edge="1" parent="oJoJYEPMuIziXtRQ-ZP9-41" source="oJoJYEPMuIziXtRQ-ZP9-25" target="oJoJYEPMuIziXtRQ-ZP9-27">
          <mxGeometry relative="1" as="geometry" />
        </mxCell>
        <mxCell id="oJoJYEPMuIziXtRQ-ZP9-8" value="&lt;div&gt;Route&lt;/div&gt;&lt;div&gt;to=&#39;/profile&#39;&lt;br&gt;&lt;/div&gt;" style="rounded=0;whiteSpace=wrap;html=1;" vertex="1" parent="1">
          <mxGeometry x="-240" y="320" width="120" height="60" as="geometry" />
        </mxCell>
        <mxCell id="oJoJYEPMuIziXtRQ-ZP9-22" style="edgeStyle=orthogonalEdgeStyle;rounded=0;orthogonalLoop=1;jettySize=auto;html=1;exitX=0.5;exitY=1;exitDx=0;exitDy=0;entryX=0.5;entryY=0;entryDx=0;entryDy=0;" edge="1" parent="1" source="oJoJYEPMuIziXtRQ-ZP9-8" target="oJoJYEPMuIziXtRQ-ZP9-41">
          <mxGeometry relative="1" as="geometry" />
        </mxCell>
        <mxCell id="oJoJYEPMuIziXtRQ-ZP9-42" value="Messages" style="swimlane;whiteSpace=wrap;html=1;startSize=23;" vertex="1" parent="1">
          <mxGeometry x="-25" y="400" width="270" height="210" as="geometry">
            <mxRectangle x="40" y="400" width="140" height="30" as="alternateBounds" />
          </mxGeometry>
        </mxCell>
        <mxCell id="oJoJYEPMuIziXtRQ-ZP9-29" value="Messages" style="rounded=0;whiteSpace=wrap;html=1;" vertex="1" parent="oJoJYEPMuIziXtRQ-ZP9-42">
          <mxGeometry x="75" y="40" width="120" height="60" as="geometry" />
        </mxCell>
        <mxCell id="oJoJYEPMuIziXtRQ-ZP9-33" value="MessageItem" style="rounded=0;whiteSpace=wrap;html=1;" vertex="1" parent="oJoJYEPMuIziXtRQ-ZP9-42">
          <mxGeometry x="10" y="140" width="120" height="60" as="geometry" />
        </mxCell>
        <mxCell id="oJoJYEPMuIziXtRQ-ZP9-34" style="edgeStyle=orthogonalEdgeStyle;rounded=0;orthogonalLoop=1;jettySize=auto;html=1;exitX=0.5;exitY=1;exitDx=0;exitDy=0;entryX=0.5;entryY=0;entryDx=0;entryDy=0;" edge="1" parent="oJoJYEPMuIziXtRQ-ZP9-42" source="oJoJYEPMuIziXtRQ-ZP9-29" target="oJoJYEPMuIziXtRQ-ZP9-33">
          <mxGeometry relative="1" as="geometry" />
        </mxCell>
        <mxCell id="oJoJYEPMuIziXtRQ-ZP9-31" value="DialogItem" style="rounded=0;whiteSpace=wrap;html=1;" vertex="1" parent="oJoJYEPMuIziXtRQ-ZP9-42">
          <mxGeometry x="140" y="140" width="120" height="60" as="geometry" />
        </mxCell>
        <mxCell id="oJoJYEPMuIziXtRQ-ZP9-32" style="edgeStyle=orthogonalEdgeStyle;rounded=0;orthogonalLoop=1;jettySize=auto;html=1;exitX=0.5;exitY=1;exitDx=0;exitDy=0;entryX=0.5;entryY=0;entryDx=0;entryDy=0;" edge="1" parent="oJoJYEPMuIziXtRQ-ZP9-42" source="oJoJYEPMuIziXtRQ-ZP9-29" target="oJoJYEPMuIziXtRQ-ZP9-31">
          <mxGeometry relative="1" as="geometry" />
        </mxCell>
        <mxCell id="oJoJYEPMuIziXtRQ-ZP9-43" value="News" style="swimlane;whiteSpace=wrap;html=1;" vertex="1" parent="1">
          <mxGeometry x="255" y="400" width="270" height="110" as="geometry">
            <mxRectangle x="355" y="400" width="70" height="30" as="alternateBounds" />
          </mxGeometry>
        </mxCell>
        <mxCell id="oJoJYEPMuIziXtRQ-ZP9-35" value="News" style="rounded=0;whiteSpace=wrap;html=1;" vertex="1" parent="oJoJYEPMuIziXtRQ-ZP9-43">
          <mxGeometry x="75" y="40" width="120" height="60" as="geometry" />
        </mxCell>
        <mxCell id="oJoJYEPMuIziXtRQ-ZP9-44" value="Settings" style="swimlane;whiteSpace=wrap;html=1;" vertex="1" parent="1">
          <mxGeometry x="820" y="400" width="270" height="110" as="geometry">
            <mxRectangle x="910" y="400" width="90" height="30" as="alternateBounds" />
          </mxGeometry>
        </mxCell>
        <mxCell id="oJoJYEPMuIziXtRQ-ZP9-38" value="Setings" style="rounded=0;whiteSpace=wrap;html=1;" vertex="1" parent="oJoJYEPMuIziXtRQ-ZP9-44">
          <mxGeometry x="75" y="40" width="120" height="60" as="geometry" />
        </mxCell>
        <mxCell id="oJoJYEPMuIziXtRQ-ZP9-45" value="Music" style="swimlane;whiteSpace=wrap;html=1;" vertex="1" parent="1">
          <mxGeometry x="540" y="400" width="270" height="110" as="geometry">
            <mxRectangle x="630" y="400" width="70" height="30" as="alternateBounds" />
          </mxGeometry>
        </mxCell>
        <mxCell id="oJoJYEPMuIziXtRQ-ZP9-37" value="Music" style="rounded=0;whiteSpace=wrap;html=1;" vertex="1" parent="oJoJYEPMuIziXtRQ-ZP9-45">
          <mxGeometry x="75" y="40" width="120" height="60" as="geometry" />
        </mxCell>
      </root>
    </mxGraphModel>
  </diagram>
</mxfile>
